<svg width="420" height="79" viewBox="0 0 420 79" fill="none" xmlns="http://www.w3.org/2000/svg">
<mask id="mask0_50_293" style="mask-type:luminance" maskUnits="userSpaceOnUse" x="0" y="0" width="420" height="79">
<path d="M0 0H420V79H0V0Z" fill="white"/>
</mask>
<g mask="url(#mask0_50_293)">
<path d="M390.515 -8.18791e-05C395.24 0.0536962 399.251 2.77845 402.485 6.34573C403.157 7.0807 404.627 7.38544 405.32 6.6684C411.641 -8.21212e-05 419.999 1.54156 419.999 8.53271C420.482 22.7122 395.681 43.4168 389.633 26.7993C386.987 19.4855 380.75 14.5379 380.477 9.08841C380.204 4.17668 384.761 -0.071786 390.515 -8.18791e-05Z" fill="#EA534A"/>
<path d="M3.17042 71.0408C3.17042 65.8781 4.15742 64.677 7.03442 62.5618C9.40742 60.8767 9.72242 59.1738 9.72242 56.2877V36.0313C9.72242 31.7111 9.42842 30.3487 5.94242 30.2591C2.28842 30.0977 -0.000585056 28.9146 -0.000585056 25.8672C-0.105585 21.9772 2.28842 18.9119 5.85842 16.3664C8.63042 14.4125 12.4104 13.068 16.0854 13.068C21.0414 13.068 24.1284 15.3625 24.2334 18.7506C24.2334 20.7762 24.7374 21.1168 25.7244 21.1168C27.1104 21.1168 27.6984 19.6827 28.8954 18.3203C31.2684 15.0937 35.5524 12.3868 41.8944 12.3868C55.3974 12.3868 63.8394 21.798 63.8394 36.4615C63.8394 51.125 56.4894 61.289 40.5084 61.289C31.9614 61.1994 31.7724 57.8114 29.4834 57.901C27.1944 58.0623 27.1944 59.586 27.2994 61.54C27.4044 62.8127 27.8874 63.6553 30.2814 64.8563C33.6624 66.4696 35.2374 68.1547 35.2374 72.2239C35.2374 76.2931 33.0534 78.9103 25.8084 78.9999C16.1904 78.9999 3.17042 77.9781 3.17042 71.0408ZM42.3984 37.053C41.0964 31.3705 38.7234 27.6419 33.3684 28.5023C28.4964 29.2552 27.6984 33.4141 28.4964 38.3258C29.4834 45.2811 31.7724 47.3964 37.2324 46.8048C42.2934 46.3746 43.6794 42.8969 42.3984 37.053ZM131.774 46.6255C131.774 41.8751 132.866 37.9852 132.866 32.8046C132.866 30.2591 132.362 30.51 128.897 30.4383C125.222 30.277 125.222 27.7315 125.222 23.9133C125.222 17.5495 126.608 18.1411 136.436 13.7492C142.883 10.7914 146.453 8.58651 151.031 8.58651C153.11 8.58651 154.916 9.42903 154.916 11.9028C154.916 15.2908 155.903 16.7966 160.376 16.7966C166.13 16.7966 168.314 16.7966 168.314 20.9555C168.314 23.3217 168.02 24.6841 167.81 27.9825C167.516 32.8046 164.639 32.8046 158.78 32.8046C151.934 32.8046 153.32 31.0478 153.131 36.5511C153.131 38.3258 152.942 40.1005 152.942 41.7138C152.942 44.3489 154.727 45.6934 157.499 45.6934C160.082 45.6934 162.959 45.1018 165.143 45.1018C167.033 45.1018 168.125 45.9443 168.02 49.5116C167.915 57.0585 162.161 62.4004 151.745 62.4004C140.195 62.3825 131.774 56.449 131.774 46.6255ZM172.367 53.6525C172.367 50.6051 172.556 48.7408 175.349 46.6972C177.533 45.0839 177.827 43.3809 178.121 39.6523C178.226 36.7662 178.226 33.8084 178.226 30.5817C178.226 27.1041 178.226 21.2602 178.121 18.0335C178.016 15.4163 177.533 14.8965 174.74 14.7351C171.569 14.6455 169.385 13.7134 169.385 10.415C169.385 3.5493 199.562 -6.75817 199.562 6.50709C199.562 8.80162 199.268 12.5302 198.764 19.1449C198.176 25.67 197.273 35.4218 197.672 41.427C197.861 43.8829 198.26 44.9046 200.15 46.3387C202.229 47.8624 203.321 49.4758 203.321 53.1148C203.321 59.3889 200.843 61.7551 187.739 61.7551C176.147 61.791 172.367 60.9484 172.367 53.6525ZM205.925 37.8956C205.925 23.1424 214.85 12.2972 234.527 12.4765C253.49 12.6378 262.226 23.0707 262.226 37.8956C262.226 52.7204 253.196 62.8127 233.918 62.8127C214.64 62.8127 205.925 52.8996 205.925 37.8956ZM241.478 36.3718C238.79 29.076 236.207 26.2078 231.041 27.3909C226.274 28.4127 224.993 32.7329 226.967 39.7599C228.941 46.2849 232.322 48.5795 237.299 47.5577C242.675 46.5538 243.662 42.646 241.478 36.3718ZM277.724 53.8318C275.939 49.0814 272.768 41.0326 269.975 33.7367C268.589 29.8468 267.896 28.9146 266.006 27.6419C264.809 26.7994 264.326 25.437 264.326 21.7084C264.326 15.0937 267.203 13.5699 280.916 13.5699C293.033 13.5699 295.217 15.6135 295.217 20.8658C295.217 23.9133 294.818 25.3653 293.033 26.7994C291.752 27.9108 291.542 28.825 292.046 31.0299C293.033 34.9198 294.335 39.3296 295.427 42.8073C296.015 45.1018 296.225 45.9443 297.212 45.9443C298.493 45.9443 298.808 44.6716 299.69 42.3771C301.181 38.3975 301.37 38.0569 303.071 32.6253C303.974 29.7392 303.176 28.2155 301.286 26.6918C300.299 25.67 299.396 24.3256 299.396 21.0989C299.396 15.9362 300.887 13.7313 313.592 13.7313C322.622 13.7313 323.42 15.9362 323.42 20.5969C323.42 24.2359 322.328 25.7596 321.131 26.9607C319.451 28.574 318.947 29.3269 317.666 32.3026C313.886 40.692 312.101 45.1915 308.237 54.4234C305.759 60.1955 304.961 61.54 298.514 61.54H290.429C282.68 61.54 280.601 60.9484 277.724 53.8318ZM324.365 38.9173C324.365 24.8454 333.29 12.3868 352.757 12.3868C367.646 12.3868 378.083 19.3421 378.083 33.7547C378.083 40.4411 376.403 41.4628 366.575 41.4628H346.226C345.029 41.4628 344.231 41.8034 344.231 42.9866C344.231 45.6934 350.384 47.486 358.028 47.486C360.485 47.486 362.48 47.3246 364.181 47.0916C366.407 46.7689 374.156 45.1197 375.437 49.2607C375.647 49.9598 375.605 50.6947 375.416 51.3759C373.358 58.6539 364.454 62.8307 352.778 62.8307C335.81 62.8127 324.386 53.2402 324.365 38.9173ZM362.144 28.825C361.598 25.1322 357.755 21.8697 352.799 22.0848C346.478 22.2999 343.853 25.67 344.273 30.8327C344.42 32.8404 345.512 33.1452 347.843 33.1452C360.884 33.1452 362.543 31.6752 362.144 28.825ZM68.2074 39.5806C68.2074 25.5087 77.1324 13.0501 96.5994 13.0501C111.488 13.0501 121.925 20.0054 121.925 34.4179C121.925 41.1043 120.245 42.1261 110.417 42.1261H90.0684C88.8714 42.1261 88.0734 42.4667 88.0734 43.6498C88.0734 46.3566 94.2264 48.1492 101.87 48.1492C104.327 48.1492 106.322 47.9879 108.023 47.7549C110.249 47.4322 117.998 45.783 119.279 49.9239C119.489 50.623 119.447 51.358 119.258 52.0392C117.2 59.3172 108.296 63.4939 96.6414 63.4939C79.6314 63.4939 68.2074 53.9214 68.2074 39.5806ZM105.965 29.5062C105.419 25.8134 101.555 22.5509 96.6204 22.766C90.2994 22.9811 87.6744 26.3512 88.0944 31.5139C88.2414 33.5216 89.3334 33.8264 91.6644 33.8264C104.726 33.8264 106.385 32.3564 105.965 29.5062Z" fill="#4E2096"/>
</g>
</svg>
